<?xml version="1.0" encoding="utf-8"?>
<!-- Generator: Adobe Illustrator 27.5.0, SVG Export Plug-In . SVG Version: 6.00 Build 0)  -->
<svg version="1.1" xmlns="http://www.w3.org/2000/svg" xmlns:xlink="http://www.w3.org/1999/xlink" x="0px" y="0px"
	 viewBox="0 0 500 500" style="enable-background:new 0 0 500 500;" xml:space="preserve">
<g id="Background_Simple">
	<g>
		<path style="fill:#92E3A9;" d="M444.676,105.148c10.993,30.851,9.964,65.919,2.582,97.296
			c-14.621,62.144-54.032,118.091-107.625,152.782c-53.593,34.691-120.772,47.74-183.454,35.636
			c-30.942-5.975-61.421-18.303-84.175-40.105c-34.101-32.675-48.292-86.6-35.693-131.958c6.342-22.831,19.228-43.772,36.589-59.88
			c18.984-17.614,45.795-24.675,68.317-36.896c33.274-18.055,60.42-45.803,93.308-64.551c32.151-18.328,69.881-27.56,106.655-23.401
			c33.669,3.808,77.285,21.247,94.859,52.15C439.491,92.292,442.352,98.626,444.676,105.148z"/>
		<path style="opacity:0.7;fill:#FFFFFF;" d="M444.676,105.148c10.993,30.851,9.964,65.919,2.582,97.296
			c-14.621,62.144-54.032,118.091-107.625,152.782c-53.593,34.691-120.772,47.74-183.454,35.636
			c-30.942-5.975-61.421-18.303-84.175-40.105c-34.101-32.675-48.292-86.6-35.693-131.958c6.342-22.831,19.228-43.772,36.589-59.88
			c18.984-17.614,45.795-24.675,68.317-36.896c33.274-18.055,60.42-45.803,93.308-64.551c32.151-18.328,69.881-27.56,106.655-23.401
			c33.669,3.808,77.285,21.247,94.859,52.15C439.491,92.292,442.352,98.626,444.676,105.148z"/>
	</g>
</g>
<g id="Shadow">
	<g>
		<ellipse style="fill:#92E3A9;" cx="249.876" cy="398.148" rx="210.749" ry="53.218"/>
		<ellipse style="opacity:0.5;fill:#FFFFFF;" cx="249.876" cy="398.148" rx="210.749" ry="53.218"/>
	</g>
</g>
<g id="Character">
	<g>
		<path style="fill:#92E3A9;stroke:#263238;stroke-miterlimit:10;" d="M382.303,140.746v133.419l-5.107-0.629v-54.662l-0.01-73.94
			c0-2.486-1.112-4.846-3.047-6.423c-7.448-6.065-26.494-20.729-33.188-17.876c-6.278,2.679-34.146,94.176-47.804,140.152
			c-4.604,15.506-7.593,25.836-7.593,25.836l-6.616,1.18c0,0,2.999-11.298,7.68-28.139c13.3-47.814,40.22-140.287,50.773-145.075
			c0.01-0.01,0.019-0.01,0.029-0.01c0.223-0.097,0.426-0.155,0.629-0.174c2.999-0.29,6.858,0.745,11.037,2.534
			c1.19,0.513,2.418,1.083,3.656,1.712c2.022,1.006,4.072,2.147,6.113,3.366c1.093,0.648,2.186,1.316,3.26,1.993
			c1.993,1.257,3.937,2.544,5.784,3.821c0.716,0.493,1.412,0.987,2.099,1.461c1.954,1.393,3.772,2.728,5.369,3.927
			c1.47,1.103,2.757,2.099,3.811,2.931c0.561,0.445,1.054,0.832,1.48,1.171c0.967,0.774,1.557,1.906,1.625,3.134
			C382.303,140.553,382.303,140.649,382.303,140.746z"/>
		<g>
			<path style="fill:#92E3A9;stroke:#263238;stroke-miterlimit:10;" d="M387.681,110.721l-38.595,6.22l-9.973,1.606
				c-0.145,0.019-0.29,0.039-0.426,0.039c-1.151,0-2.167-0.735-2.37-1.789c-0.174-0.88,0.281-1.741,1.074-2.205
				c0.01-0.01,0.019-0.01,0.029-0.01c0.252-0.145,0.532-0.251,0.842-0.3l48.568-7.825c1.315-0.213,2.563,0.571,2.796,1.751
				C389.868,109.377,388.997,110.508,387.681,110.721z"/>
		</g>
		<g>
			<path style="fill:#92E3A9;stroke:#263238;stroke-miterlimit:10;" d="M400.817,114.784l-41.961,7.235l-4.672,0.803
				c-0.135,0.019-0.28,0.029-0.416,0.029c-1.093,0-2.07-0.755-2.273-1.828c-0.184-0.996,0.348-1.944,1.248-2.37
				c0.193-0.106,0.406-0.174,0.629-0.213l46.633-8.029c1.257-0.222,2.457,0.58,2.679,1.789
				C402.916,113.41,402.075,114.571,400.817,114.784z"/>
		</g>
		<g>
			<path style="fill:#92E3A9;stroke:#263238;stroke-miterlimit:10;" d="M410.723,120.007l-42.822,7.825l-4.807,0.88
				c-0.135,0.029-0.281,0.039-0.416,0.039c-1.122,0-2.118-0.813-2.322-1.983c-0.222-1.258,0.551-2.467,1.761-2.757
				c0.048-0.019,0.097-0.029,0.145-0.039l47.63-8.706c1.277-0.232,2.505,0.638,2.737,1.944
				C412.86,118.517,412.009,119.775,410.723,120.007z"/>
		</g>
		<g>
			<path style="fill:#92E3A9;stroke:#263238;stroke-miterlimit:10;" d="M419.931,125.23l-44.563,7.99l-4.217,0.754
				c-0.145,0.029-0.29,0.039-0.426,0.039c-1.151,0-2.167-0.822-2.38-1.993c-0.213-1.209,0.513-2.38,1.654-2.728
				c0.097-0.039,0.193-0.058,0.3-0.077l48.781-8.744c1.306-0.232,2.563,0.638,2.805,1.954
				C422.117,123.741,421.247,124.998,419.931,125.23z"/>
		</g>
		<g>
			<path style="fill:#92E3A9;stroke:#263238;stroke-miterlimit:10;" d="M430.388,131.518c-0.3,0.261-0.677,0.435-1.083,0.503
				l-47.02,8.435l-1.751,0.309c-0.145,0.029-0.29,0.039-0.435,0.039c-1.151,0-2.167-0.822-2.38-1.993
				c-0.203-1.141,0.426-2.234,1.461-2.66c0.155-0.068,0.319-0.116,0.493-0.145l48.781-8.744c0.474-0.087,0.948-0.019,1.364,0.155
				c0.735,0.3,1.296,0.967,1.441,1.799C431.413,130.115,431.055,130.996,430.388,131.518z"/>
		</g>
		<path style="opacity:0.3;" d="M429.304,132.021l-47.02,8.435c0.019,0.097,0.019,0.193,0.019,0.29v70.961l-5.107,7.168l-0.01-73.94
			c0-2.486-1.112-4.846-3.047-6.423c-7.448-6.065-26.494-20.729-33.188-17.876c-6.278,2.679-34.146,94.176-47.804,140.152
			l-5.678,1.025l-0.851-2.147c13.3-47.814,40.22-140.287,50.773-145.075c0.01-0.01,0.019-0.01,0.029-0.01
			c0.252-0.145,0.532-0.251,0.842-0.3l48.568-7.825c1.315-0.213,2.563,0.571,2.796,1.751c0.242,1.17-0.629,2.302-1.944,2.515
			l-38.595,6.22c1.19,0.513,2.418,1.083,3.656,1.712c0.193-0.106,0.406-0.174,0.629-0.213l46.633-8.029
			c1.257-0.222,2.457,0.58,2.679,1.789c0.232,1.209-0.609,2.37-1.867,2.583l-41.961,7.235c1.093,0.648,2.186,1.316,3.26,1.993
			c0.048-0.019,0.097-0.029,0.145-0.039l47.63-8.706c1.277-0.232,2.505,0.638,2.737,1.944c0.232,1.306-0.619,2.563-1.906,2.795
			l-42.822,7.825c0.716,0.493,1.412,0.987,2.099,1.461c0.097-0.039,0.193-0.058,0.3-0.077l48.781-8.744
			c1.306-0.232,2.563,0.638,2.805,1.954c0.232,1.315-0.638,2.573-1.954,2.805l-44.563,7.99c1.47,1.103,2.757,2.099,3.811,2.931
			c0.155-0.068,0.319-0.116,0.493-0.145l48.781-8.744c0.474-0.087,0.948-0.019,1.364,0.155c0.222,1.412,0.406,2.786,0.571,4.101
			C430.088,131.779,429.711,131.953,429.304,132.021z"/>
		<g>
			<g>
				<path style="fill:#263238;" d="M447.413,326.063c0,0-7.298-12.758-24.326-8.491c-7.368,1.035-13.206,15.243-13.206,32.625
					c0,18.03,6.281,32.65,14.035,32.69l0.062,0.286c0,0,13.346,3.019,21.217-3.74C453.065,372.674,447.413,326.063,447.413,326.063z
					"/>
				<ellipse style="fill:#263238;" cx="440.941" cy="351.382" rx="12.672" ry="29.449"/>
				<ellipse style="opacity:0.3;" cx="440.941" cy="351.382" rx="12.672" ry="29.449"/>
				<path style="fill:#FFFFFF;stroke:#263238;stroke-miterlimit:10;" d="M443.78,349.483c0,9.296-3.173,16.831-7.081,16.831
					c-0.484,0-0.958-0.116-1.412-0.339c0,0,0,0-0.01,0c-3.221-1.577-5.649-8.357-5.649-16.492c0-8.135,2.428-14.916,5.649-16.492
					c0.01,0,0.01,0,0.01,0c0.455-0.222,0.929-0.338,1.412-0.338C440.608,332.652,443.78,340.187,443.78,349.483z"/>
				<path style="fill:#FFFFFF;stroke:#263238;stroke-miterlimit:10;" d="M440.937,349.483c0,8.135-2.418,14.916-5.649,16.492
					c0,0,0,0-0.01,0c-3.221-1.577-5.649-8.357-5.649-16.492c0-8.135,2.428-14.916,5.649-16.492c0.01,0,0.01,0,0.01,0
					C438.518,334.567,440.937,341.348,440.937,349.483z"/>
			</g>
			<path style="fill:#92E3A9;" d="M451.136,304.683c0,6.123,0.658,11.327-4.121,13.861c-4.779,2.534-13.233,6.51-17.005,25.508
				c-3.366,16.976,0.435,22.702-5.281,24.25c-4.45,1.219-38.247,9.421-52.892,12.971c-4.121,0.996-6.723,1.625-6.723,1.625
				l-36.496-24.444l-0.89-0.6l-4.053-2.718l4.053-18.901l0.474-2.196l19.22-26.91l33.014-33.256l16.018-9.76
				c0,0,37.889,0.464,39.901,2.718c2.002,2.263,2.554,3.463,3.531,12.594c0.987,9.141-0.174,12.749,5.988,14.538
				c5.349,1.538,5.378,3.869,5.291,8.444C451.155,303.116,451.136,303.871,451.136,304.683z"/>
			<path style="opacity:0.3;" d="M429.643,265.498c0.01,0.029-0.322,0.244-0.332,0.273c-2.795,2.225-16.161,8.742-24.257,20.215
				c-8.106,11.472-16.099,26.183-15.935,34.87c0,0,2.008,1.078,2.905,4.141v5.881c-15.206,13.765-26.04,25.778-26.04,25.778
				l-37.367,1.799l-0.89,0.039v-23.796l0.474-0.658l19.22-26.91l33.014-33.256l16.018-9.76
				C396.455,264.115,418.229,264.386,429.643,265.498z"/>
			<path style="fill:none;stroke:#263238;stroke-linecap:round;stroke-linejoin:round;stroke-miterlimit:10;" d="M370.162,381.62
				l53.277-12.826c2.652-0.668,4.544-3,4.652-5.733c0.346-8.669,1.753-27.289,7.484-35.204c4.161-5.746,8.43-8.237,11.441-9.314
				c2.463-0.881,4.115-3.193,4.115-5.809V300.06c0-2.97-2.119-5.517-5.039-6.058l-0.216-0.04c-2.678-0.496-4.712-2.691-5.004-5.399
				l-1.861-17.291c-0.317-2.945-2.679-5.249-5.632-5.482c-10.93-0.865-36.993-2.452-53.516,0.443"/>
			<path style="fill:none;stroke:#263238;stroke-linecap:round;stroke-linejoin:round;stroke-miterlimit:10;" d="M421.914,307.13
				c5.026-3.516,10.067-6.737,14.96-9.437"/>
			<path style="fill:none;stroke:#263238;stroke-linecap:round;stroke-linejoin:round;stroke-miterlimit:10;" d="M367.296,354.522
				c0,0,21.079-21.89,44.945-40.271"/>
			<path style="fill:none;stroke:#263238;stroke-linecap:round;stroke-linejoin:round;stroke-miterlimit:10;" d="M370.929,342.058
				c0,0-14.679-27.273-40.918-8.769"/>
			<path style="fill:none;stroke:#263238;stroke-linecap:round;stroke-linejoin:round;stroke-miterlimit:10;" d="M391.935,331.12
				c0,0,1.293-9.626-5.877-12.208c-7.17-2.581-35.588-1.565-35.588-1.565"/>
			<path style="fill:none;stroke:#263238;stroke-linecap:round;stroke-linejoin:round;stroke-miterlimit:10;" d="M389.119,320.855
				c0,0,1.267-30.013,35.614-51.616"/>
			<g>
				<path style="fill:#263238;" d="M366.554,350.751c0,0-8.156-14.258-27.185-9.489c-8.234,1.157-14.758,17.034-14.758,36.459
					c0,20.15,7.019,36.487,15.685,36.532l0.069,0.32c0,0,14.915,3.374,23.711-4.18C372.871,402.84,366.554,350.751,366.554,350.751z
					"/>
				<ellipse style="fill:#222221;" cx="359.322" cy="379.046" rx="14.161" ry="32.91"/>
				<ellipse style="opacity:0.3;" cx="359.322" cy="379.046" rx="14.161" ry="32.91"/>
				<path style="fill:#FFFFFF;stroke:#263238;stroke-miterlimit:10;" d="M362.495,376.924c0,10.388-3.546,18.809-7.913,18.809
					c-0.54,0-1.07-0.13-1.578-0.378c0,0,0,0-0.011,0c-3.6-1.762-6.313-9.34-6.313-18.431c0-9.091,2.713-16.669,6.313-18.431
					c0.011,0,0.011,0,0.011,0c0.508-0.249,1.038-0.378,1.578-0.378C358.949,358.115,362.495,366.535,362.495,376.924z"/>
				<path style="fill:#FFFFFF;stroke:#263238;stroke-miterlimit:10;" d="M359.317,376.924c0,9.091-2.702,16.669-6.313,18.431
					c0,0,0,0-0.011,0c-3.6-1.762-6.313-9.34-6.313-18.431c0-9.091,2.713-16.669,6.313-18.431c0.011,0,0.011,0,0.011,0
					C356.615,360.255,359.317,367.833,359.317,376.924z"/>
			</g>
			<path style="opacity:0.1;" d="M447.016,318.545c-4.779,2.534-13.233,6.51-17.005,25.508c-3.366,16.976,0.435,22.702-5.281,24.25
				c-4.45,1.219-38.247,9.421-52.892,12.971l-0.909-7.526l47.775-10.379c0,0-1.712-55.242,32.462-60.959
				c-0.01,0.706-0.029,1.461-0.029,2.273C451.136,310.806,451.794,316.01,447.016,318.545z"/>
			<path style="opacity:0.1;" d="M389.119,318.883c0,0,6.321,4.347,9.652,1.034c3.331-3.313,26.035-18.834,36.511-21.33
				c0,0-34.416,23.973-45.515,34.35c0,0,5.724-3.046,0-11.005L389.119,318.883z"/>
		</g>
		<g>
			<g>
				<g>
					<path style="fill:#FFFFFF;stroke:#263238;stroke-linecap:round;stroke-linejoin:round;stroke-miterlimit:10;" d="
						M322.474,224.181c0,0,2.252,25.069,14.04,31.349c0,0,9.049,1.014,17.448-4.221c4.068-2.536,12.245-26.507,12.951-28.828
						l-17.749-2.648l-3.407,23.928c0,0-7.764-7.569-12.281-15.17c0.589-2.82-2.086-4.488-2.822-6.931
						C327.319,210.594,322.474,224.181,322.474,224.181z"/>
					<path style="fill:#92E3A9;" d="M388.033,186.941c0,0,5,0,7.081,4.463c0,0,18.884,7.759,22.537,13.179
						c3.652,5.42,1.949,26.913-2.533,36.166c-4.481,9.253-13.284,12.622-13.284,12.622l-1.884,8.147l-39.268-0.408l-3.84-24.645
						l0.15-11.552l-7.945-4.445c0,0,2.354-18.099,5.73-19.794c3.376-1.694,18.203-7.774,18.203-7.774s1.042-3.011,2.979-3.853
						C377.896,188.204,388.033,186.941,388.033,186.941z"/>
					<path style="fill:#FFFFFF;" d="M416.316,236.687c0,0-4.817,17.314-8.026,20.692c0,0-8.546,0.681-14.96-0.895
						c-6.414-1.576-33.021-12.35-36.191-15.656c-3.17-3.305,2.819-7.339,2.819-7.339s5.283,1.972,12.864,3.752
						c7.581,1.779,20.822,2.958,24.534,5.206l3.065-9.461C400.42,232.985,408.716,230.715,416.316,236.687z"/>
					<path style="fill:#FFFFFF;" d="M367.032,159.064c0,0-0.684,5.316,1.382,15.4c2.066,10.085,3.724,12.702,6.603,12.41
						c2.879-0.292,2.879,1.329,2.879,1.329v6.295c0,0,2.877,11.315,4.625,11.948c1.748,0.633,6.878-8.641,8.13-11.268
						c1.251-2.627,1.263-14.314,1.263-14.314l0.591-9.211c0,0,4.031-0.792,3.405-4.931c-0.626-4.139-5.39-9.628-5.39-9.628
						S375.525,153.524,367.032,159.064z"/>
					<path style="fill:#263238;" d="M327.728,255.53c0,0,22.009,1.318,24.249,3.806c2.239,2.488,1.742,8.46,1.742,8.46l4.538,3.234
						l-7.787,55.823c0,0-14.45-3.757-22.742,11.233L327.728,255.53z"/>
					<path style="fill:none;stroke:#263238;stroke-linecap:round;stroke-linejoin:round;stroke-miterlimit:10;" d="M372.523,165.85
						c0.476,2.301-0.222,4.813-1.818,6.538c-0.1,0.109-0.206,0.216-0.271,0.349c-0.199,0.405,0.043,0.9,0.38,1.199
						c0.465,0.413,1.12,0.603,1.734,0.502s1.174-0.489,1.483-1.029"/>
					<path style="fill:none;stroke:#263238;stroke-linecap:round;stroke-linejoin:round;stroke-miterlimit:10;" d="M372.198,163.151
						c0,0-1.667-1.45-3.468,0.4"/>
					<path style="fill:none;stroke:#263238;stroke-linecap:round;stroke-linejoin:round;stroke-miterlimit:10;" d="M376.633,162.611
						c0,0,2.651-1.26,4.201,1.341"/>
					<path style="fill:#263238;" d="M371.281,166.927c0,0.87-0.381,1.575-0.85,1.575c-0.47,0-0.85-0.705-0.85-1.575
						c0-0.87,0.381-1.575,0.85-1.575C370.901,165.352,371.281,166.057,371.281,166.927z"/>
					<ellipse style="fill:#263238;" cx="377.683" cy="166.927" rx="0.85" ry="1.575"/>
					<path style="fill:none;stroke:#263238;stroke-linecap:round;stroke-linejoin:round;stroke-miterlimit:10;" d="M373.282,177.454
						c0,0,5.051,0.9,6.401-1.9"/>
					<path style="fill:none;stroke:#263238;stroke-linecap:round;stroke-linejoin:round;stroke-miterlimit:10;" d="M369.581,153.032
						c0,0-3.956,6.237-2.013,17.125c1.943,10.888,4.048,15.989,7.449,16.717c3.4,0.729,12.954-4.777,15.221-7.125
						c2.267-2.348,2.267-8.096,2.267-8.096"/>
					<path style="fill:none;stroke:#263238;stroke-linecap:round;stroke-linejoin:round;stroke-miterlimit:10;" d="M389.668,166.723
						c0,0,0.695-3.846,2.56-4.478c1.865-0.632,3.683,2.476,3.683,4.478s-1.738,5.4-4.109,4.926"/>
					<path style="fill:#263238;" d="M391.694,162.532c0,0-2.838,1.687-5.382,1.419c-2.544-0.268-6.076-4.749-11.029-4.348
						c-4.953,0.402-9.103,3.748-10.71,2.41c-1.607-1.339,0.803-4.953,0.803-4.953l1.136-1.435c0,0-0.301-3.058-0.301-5.601
						c0-2.544,4.088-6.481,12.522-7.017c8.434-0.535,12.177,2.741,13.539,4.245c0.321,0.354,3.021,3.376,3.638,6.219
						c0.7,3.223-0.526,7.874-0.83,10.509C393.811,161.341,391.694,162.532,391.694,162.532z"/>
					<path style="fill:none;stroke:#FFFFFF;stroke-linecap:round;stroke-linejoin:round;stroke-miterlimit:10;" d="M369.581,155.768
						c0,0,6.948-4.142,15.025,1.726"/>
					<path style="fill:none;stroke:#263238;stroke-linecap:round;stroke-linejoin:round;stroke-miterlimit:10;" d="M377.896,186.583
						v1.621v6.295c0,0,2.569,11.177,4.625,11.948c2.055,0.771,6.938-8.351,7.965-10.792c0.549-1.304,0.805-4.367,0.924-6.938
						l1.095-17.064"/>
					<path style="fill:none;stroke:#263238;stroke-linecap:round;stroke-linejoin:round;stroke-miterlimit:10;" d="M377.683,188.718
						c0,0-3.513,0.129-3.898,2.441c-0.385,2.313-0.128,12.333-0.899,13.875c-0.771,1.542-2.056,2.569-1.542,3.083
						c0.514,0.514,7.52-5.349,9.348-4.409"/>
					<path style="fill:none;stroke:#263238;stroke-linecap:round;stroke-linejoin:round;stroke-miterlimit:10;" d="M385.927,203.669
						c0,0,3.274,1.236,5.587,3.549c2.312,2.313,4.111-0.165,3.469-0.725c-0.642-0.56-1.542-2.102-0.514-6.213
						c1.028-4.111,0.8-11.549-3.004-12.969"/>
					<path style="fill:none;stroke:#263238;stroke-linecap:round;stroke-linejoin:round;stroke-miterlimit:10;" d="M348.967,220.901
						c1.476-8.081,3.605-18.794,5.81-20.228c3.196-2.078,18.862-7.816,18.862-7.816"/>
					<polyline style="fill:none;stroke:#263238;stroke-linecap:round;stroke-linejoin:round;stroke-miterlimit:10;" points="
						355.334,226.005 360.129,259.247 399.951,261.517 401.354,257.659 					"/>
					
						<line style="fill:none;stroke:#222221;stroke-linecap:round;stroke-linejoin:round;stroke-miterlimit:10;" x1="359.094" y1="235.674" x2="347.181" y2="230.297"/>
					<g>
						<g>
							<path style="fill:#263238;" d="M354.006,239.43c-2.796-7.468-7.758-13.639-13.958-17.382c-6.384-3.85-13.32-4.691-19.53-2.36
								c-6.21,2.331-10.892,7.516-13.165,14.616c-0.561,1.741-0.958,3.56-1.19,5.407l4.788,0.639
								c0.194-1.567,0.532-3.096,1.006-4.566c1.818-5.659,5.456-9.77,10.253-11.569c1.751-0.658,3.579-0.977,5.446-0.977
								c3.27,0,6.655,0.996,9.896,2.95c2.641,1.586,5.011,3.714,7.032,6.239c2.022,2.534,3.685,5.465,4.895,8.696
								c2.418,6.452,2.718,13.233,0.832,19.104c-1.819,5.659-5.456,9.77-10.253,11.569c-3.869,1.451-8.164,1.277-12.362-0.464v5.156
								c2.293,0.755,4.614,1.132,6.907,1.132c2.438,0,4.846-0.435,7.148-1.296c6.21-2.331,10.892-7.526,13.165-14.625
								c0.967-3.028,1.461-6.249,1.461-9.538C356.376,247.952,355.582,243.619,354.006,239.43z"/>
						</g>
						<path style="fill:#263238;" d="M327.494,220.829c0,0-2.516,17.378,3.641,22.798c6.156,5.42,20.297-2.372,20.297-2.372
							l2.197,6.428c0,0-18.223,3.062-15.96,21.353l-10.362,1.341v-27.948l-8.5-1.084c0,0,0.532-8.634-5.483-13.382
							C313.323,227.961,318.829,222.971,327.494,220.829z"/>
					</g>
					<path style="fill:none;stroke:#263238;stroke-linecap:round;stroke-linejoin:round;stroke-miterlimit:10;" d="M357.609,241.779
						c9.961,3.507,20.238,10.358,29.306,13.129c10.594,3.236,20.761,2.926,21.374,2.471c0,0,4.526-8.631,7.264-17.971
						c3.993-13.624,6.237-30.12,2.097-34.825c-5.411-6.149-22.537-13.179-22.537-13.179"/>
					<path style="fill:#263238;" d="M377.896,188.204c0,0,0.248,5.212,2.796,4.653c2.548-0.558,9.634-5.762,11.432-15.265
						c0,0-1.991,3.03-6.197,5.276c-4.206,2.246-7.194,3.456-7.194,3.456L377.896,188.204z"/>
					<path style="fill:#FFFFFF;stroke:#263238;stroke-linecap:round;stroke-linejoin:round;stroke-miterlimit:10;" d="
						M358.428,230.223c-0.489-1.94-1.365-4.122-3.192-4.578c-0.406-0.101-0.829-0.106-1.246-0.096
						c-3.549,0.081-7.302,1.337-9.349,4.238c-0.291,0.413-0.552,0.879-0.559,1.384c-0.007,0.505,0.317,1.045,0.816,1.125
						c0.345,0.055,0.684-0.111,0.992-0.276c1.412-0.758,2.798-1.613,4.349-2.015c0.879-0.228,1.834-0.299,2.68,0.031
						c0.166,0.22,0.451,0.868,0.616,1.088c-2.856,0.181-7.685,1.925-8.806,4.815c-0.089,0.228-0.156,0.48-0.09,0.717
						c0.188,0.675,1.147,0.641,1.827,0.473c2.424-0.598,4.893-1.015,7.379-1.245c-0.916,0.134-1.815,0.527-2.731,0.661
						c-1.635,0.239-3.488,0.619-4.323,2.044c-0.146,0.25-0.254,0.554-0.152,0.825c0.134,0.358,0.563,0.498,0.941,0.546
						c1.246,0.159,2.496-0.174,3.749-0.263c1.253-0.089,2.66,0.141,3.435,1.129c0.072,1.101,0.052,1.918,0.124,3.019
						c1.733-0.792,3.01-2.214,3.545-4.043c0.745-2.549,0.851-5.275,0.358-7.882C358.698,231.421,358.582,230.834,358.428,230.223z"
						/>
					<path style="fill:none;stroke:#263238;stroke-linecap:round;stroke-linejoin:round;stroke-miterlimit:10;" d="M397.355,242.446
						c0,0,4.268-9.461,3.985-17.915"/>
					<path style="fill:#263238;" d="M400.59,261.244c0,0,6.336,18.187-1.235,30.999c-2.872,4.86-35.334,5.45-35.334,5.45
						l-13.55,29.159l-15.288-53.669l24.947-13.936L400.59,261.244z"/>
					
						<line style="fill:none;stroke:#263238;stroke-linecap:round;stroke-linejoin:round;stroke-miterlimit:10;" x1="362.847" y1="296.095" x2="393.767" y2="297.693"/>
					<path style="fill:none;stroke:#263238;stroke-linecap:round;stroke-linejoin:round;stroke-miterlimit:10;" d="M359.43,232.985
						c6.607,2.916,21.551,6.428,25.672,6.806c6.725,0.618,14.741,1.545,18.237,8.215"/>
					<path style="fill:none;stroke:#263238;stroke-linecap:round;stroke-linejoin:round;stroke-miterlimit:10;" d="M400.42,232.985
						c0,0,7.145-1.903,15.896,3.701"/>
					<g style="opacity:0.2;">
						<path style="fill:none;stroke:#FFFFFF;stroke-linecap:round;stroke-linejoin:round;stroke-miterlimit:10;" d="M373.64,265.593
							c-5.461,1.657-13.478,4.264-21.815,7.582"/>
						
							<line style="fill:none;stroke:#FFFFFF;stroke-linecap:round;stroke-linejoin:round;stroke-miterlimit:10;" x1="367.566" y1="266.835" x2="366.258" y2="263.562"/>
					</g>
					
						<line style="fill:none;stroke:#263238;stroke-linecap:round;stroke-linejoin:round;stroke-miterlimit:10;" x1="357.609" y1="227.89" x2="356.376" y2="216.156"/>
				</g>
				<g>
					<path style="fill:#FFFFFF;stroke:#263238;stroke-linecap:round;stroke-linejoin:round;stroke-miterlimit:10;" d="
						M316.442,220.4c-1.302,1.405-2.542,3.134-2.38,5.043c0.034,0.401,0.168,0.845,0.527,1.026c0.446,0.224,0.976-0.075,1.337-0.42
						c0.628-0.599,1.088-1.373,1.315-2.211C317.471,222.992,318.333,218.358,316.442,220.4z"/>
					<path style="fill:#FFFFFF;stroke:#263238;stroke-linecap:round;stroke-linejoin:round;stroke-miterlimit:10;" d="
						M320.888,222.026c-0.7,1.13-1.52,2.185-2.441,3.142c-0.035,0.036-0.074,0.074-0.124,0.08c-0.051,0.005-0.098-0.025-0.139-0.056
						c-0.56-0.423-0.862-1.122-0.93-1.82c-0.068-0.698,0.075-1.4,0.267-2.074c0.4-1.404,1.068-2.806,2.254-3.657
						c0.211-0.151,0.444-0.286,0.702-0.314c0.28-0.03,0.557,0.069,0.815,0.181c0.412,0.179,0.808,0.394,1.182,0.642
						C321.942,219.472,321.639,220.814,320.888,222.026z"/>
					<path style="fill:#FFFFFF;stroke:#263238;stroke-linecap:round;stroke-linejoin:round;stroke-miterlimit:10;" d="
						M324.373,215.433c-2.338,1.218-3.621,4.72-3.905,7.162c-0.095,0.817,0.045,1.73,0.984,1.925
						c0.933,0.194,1.867-0.444,2.377-1.249c0.51-0.805,0.711-1.76,1.018-2.661c0.319-0.937,0.78-1.727,1.614-2.28
						c0.717-0.476,1.997-0.372,2.21-1.409C329.09,214.877,325.467,214.863,324.373,215.433z"/>
				</g>
			</g>
			
				<line style="fill:none;stroke:#263238;stroke-linecap:round;stroke-linejoin:round;stroke-miterlimit:10;" x1="357.296" y1="224.912" x2="349.047" y2="220.467"/>
		</g>
		<g>
			<polygon style="fill:#92E3A9;" points="324.392,76.017 324.392,241.681 305.385,241.792 298.459,243.185 298.459,115.754 
				298.43,115.763 298.42,115.763 257.02,122.854 256.555,122.931 257.246,234.695 237.132,232.602 237.132,93.283 242.327,91.494 
				256.555,94.367 256.652,94.347 297.936,84.655 297.995,84.645 298.42,75.524 298.42,75.504 298.459,74.721 305.385,72.554 			"/>
			<polygon style="opacity:0.3;" points="298.42,115.763 257.687,122.738 257.02,122.854 256.652,94.347 297.936,84.655 
				298.362,112.059 			"/>
			<polygon style="opacity:0.2;" points="298.42,115.763 257.02,122.854 257.082,119.59 298.362,112.059 			"/>
			<polygon style="opacity:0.2;" points="242.327,91.494 242.327,233.145 237.132,232.602 237.132,93.283 			"/>
			<polygon style="opacity:0.2;" points="305.385,72.554 305.385,241.792 298.459,243.185 298.43,115.763 298.42,75.524 
				298.42,75.504 298.459,74.721 			"/>
			<polyline style="fill:none;stroke:#263238;stroke-linecap:round;stroke-linejoin:round;stroke-miterlimit:10;" points="
				324.391,242.598 324.391,76.016 305.387,72.55 298.456,74.716 298.456,244.245 			"/>
			
				<line style="fill:none;stroke:#263238;stroke-linecap:round;stroke-linejoin:round;stroke-miterlimit:10;" x1="305.387" y1="72.55" x2="305.387" y2="243.185"/>
			<polyline style="fill:none;stroke:#263238;stroke-linecap:round;stroke-linejoin:round;stroke-miterlimit:10;" points="
				257.254,236.337 256.553,94.365 242.322,91.489 237.132,93.286 237.132,235.185 			"/>
			
				<line style="fill:none;stroke:#263238;stroke-linecap:round;stroke-linejoin:round;stroke-miterlimit:10;" x1="242.322" y1="91.489" x2="242.322" y2="238.315"/>
			
				<line style="fill:none;stroke:#263238;stroke-linecap:round;stroke-linejoin:round;stroke-miterlimit:10;" x1="256.553" y1="94.365" x2="298.456" y2="84.71"/>
			
				<line style="fill:none;stroke:#263238;stroke-linecap:round;stroke-linejoin:round;stroke-miterlimit:10;" x1="256.652" y1="119.674" x2="298.456" y2="111.825"/>
			
				<line style="fill:none;stroke:#263238;stroke-linecap:round;stroke-linejoin:round;stroke-miterlimit:10;" x1="257.02" y1="122.854" x2="298.456" y2="115.75"/>
		</g>
		<path style="fill:#92E3A9;stroke:#263238;stroke-miterlimit:10;" d="M433.38,265.79c0-7.048,0-14.097,0-21.145
			c0-15.447,0-30.895,0-46.342c0-15.315,0-30.631,0-45.946c0-4.015,0.117-8.05,0.196-12.055c0.062-3.189,0.52-6.78-1.181-9.6
			c-3.075-5.098-8.527-8.476-13.417-11.64c-9.084-5.879-19.178-10.917-29.859-13.024c-13.318-2.628-61.814,137.81-61.814,137.81
			l0.423,11.683c0,0,51.289-145.962,64.395-143.704c7.652,1.318,14.905,4.622,21.419,8.811c3.608,2.321,7.684,4.245,10.76,7.288
			c4.58,4.531,3.958,10.319,3.959,16.258c0,2.427,0,4.853,0.001,7.28c0.001,6.542,0.001,13.083,0.002,19.625
			c0.002,16.05,0.003,32.099,0.005,48.149c0.001,12.793,0.002,25.586,0.004,38.379c0,0.398-0.141,7.535,0.001,7.553
			C428.273,265.167,433.38,265.79,433.38,265.79z"/>
		<g>
			<polygon style="fill:#92E3A9;" points="326.306,377.331 326.306,411.632 315.695,414.524 280.844,407.714 275.001,409.368 
				275.001,425.599 257.851,429.972 222.042,422.668 217.166,423.955 217.166,441.357 194.319,447.576 162.147,441.105 
				162.147,424.39 158.481,424.274 121.617,433.551 103.577,429.488 103.577,414.224 95.49,413.373 63.831,421.991 52.107,418.973 
				52.107,386.898 194.319,381.936 202.918,381.636 			"/>
			<polygon style="opacity:0.1;" points="326.306,377.331 326.306,411.632 315.695,414.524 280.844,407.714 275.001,409.368 
				275.001,425.599 257.851,429.972 222.042,422.668 217.166,423.955 217.166,441.357 194.319,447.576 194.319,381.936 
				202.918,381.636 			"/>
			<polygon style="opacity:0.3;" points="194.319,380.93 194.319,447.576 162.147,441.105 162.147,424.39 158.481,424.274 
				121.617,433.551 103.577,429.488 103.577,414.224 95.49,413.373 63.831,421.991 52.107,418.973 52.107,369.187 			"/>
			<polygon style="opacity:0.3;" points="124.596,417.869 124.596,433.555 158.481,424.274 			"/>
			<polygon style="opacity:0.3;" points="257.853,413.242 257.851,429.972 222.042,422.668 			"/>
			<polygon style="opacity:0.3;" points="315.695,414.524 315.692,397.793 281.457,407.436 			"/>
			<polygon style="opacity:0.3;" points="66.035,407.702 97.91,413.377 66.035,421.936 			"/>
			<polygon style="fill:#FFFFFF;" points="327.728,242.471 327.728,382.148 194.319,411.245 46.139,392.44 46.139,242.471 
				194.319,228.59 			"/>
			<polygon style="opacity:0.1;" points="179.461,246.035 195.026,244.909 209.181,246.035 209.181,253.856 195.029,252.674 
				179.461,254.184 			"/>
			<polygon style="fill:none;stroke:#263238;stroke-linecap:round;stroke-linejoin:round;stroke-miterlimit:10;" points="
				46.141,242.471 46.141,392.442 194.321,411.244 327.728,382.145 327.728,242.471 194.321,228.593 			"/>
			<polyline style="fill:none;stroke:#263238;stroke-linecap:round;stroke-linejoin:round;stroke-miterlimit:10;" points="
				194.321,447.578 194.321,411.244 194.321,228.593 			"/>
			<polyline style="fill:none;stroke:#263238;stroke-linecap:round;stroke-linejoin:round;stroke-miterlimit:10;" points="
				159.482,423.926 124.596,433.555 103.582,429.488 103.582,414.221 66.035,407.702 66.035,421.936 52.107,418.975 52.107,393.199 
							"/>
			
				<line style="fill:none;stroke:#263238;stroke-linecap:round;stroke-linejoin:round;stroke-miterlimit:10;" x1="66.269" y1="421.994" x2="97.91" y2="413.377"/>
			<polyline style="fill:none;stroke:#263238;stroke-linecap:round;stroke-linejoin:round;stroke-miterlimit:10;" points="
				257.853,429.975 257.853,413.242 217.165,423.958 217.165,441.357 194.321,447.578 162.143,441.106 162.143,424.388 
				124.596,417.869 124.596,433.555 			"/>
			<polygon style="opacity:0.1;" points="194.319,228.59 194.319,411.245 46.139,392.44 46.139,242.471 			"/>
			<polyline style="fill:none;stroke:#263238;stroke-linecap:round;stroke-linejoin:round;stroke-miterlimit:10;" points="
				222.045,422.673 257.853,429.875 275.004,425.604 275.004,409.371 315.692,397.793 315.692,414.526 317.544,414.021 
				326.307,411.632 326.31,382.455 			"/>
			
				<line style="fill:none;stroke:#263238;stroke-linecap:round;stroke-linejoin:round;stroke-miterlimit:10;" x1="315.395" y1="414.659" x2="280.843" y2="407.71"/>
			<polyline style="fill:none;stroke:#263238;stroke-linecap:round;stroke-linejoin:round;stroke-miterlimit:10;" points="
				46.141,289.66 194.321,284.35 327.728,289.66 			"/>
			<polyline style="fill:none;stroke:#263238;stroke-linecap:round;stroke-linejoin:round;stroke-miterlimit:10;" points="
				46.141,341.938 194.321,350.515 327.728,338.086 			"/>
			
				<line style="fill:none;stroke:#263238;stroke-linecap:round;stroke-linejoin:round;stroke-miterlimit:10;" x1="271.541" y1="236.626" x2="271.541" y2="287.005"/>
			
				<line style="fill:none;stroke:#263238;stroke-linecap:round;stroke-linejoin:round;stroke-miterlimit:10;" x1="254.269" y1="287.005" x2="254.269" y2="344.93"/>
			
				<line style="fill:none;stroke:#263238;stroke-linecap:round;stroke-linejoin:round;stroke-miterlimit:10;" x1="298.119" y1="288.481" x2="298.119" y2="340.376"/>
			
				<line style="fill:none;stroke:#263238;stroke-linecap:round;stroke-linejoin:round;stroke-miterlimit:10;" x1="269.426" y1="343.517" x2="269.426" y2="394.862"/>
			
				<line style="fill:none;stroke:#263238;stroke-linecap:round;stroke-linejoin:round;stroke-miterlimit:10;" x1="136.433" y1="234.015" x2="136.433" y2="347.024"/>
			
				<line style="fill:none;stroke:#263238;stroke-linecap:round;stroke-linejoin:round;stroke-miterlimit:10;" x1="69.551" y1="240.278" x2="69.551" y2="288.481"/>
			
				<line style="fill:none;stroke:#263238;stroke-linecap:round;stroke-linejoin:round;stroke-miterlimit:10;" x1="86.669" y1="288.207" x2="86.669" y2="344.3"/>
			
				<line style="fill:none;stroke:#263238;stroke-linecap:round;stroke-linejoin:round;stroke-miterlimit:10;" x1="107.531" y1="400.232" x2="107.531" y2="345.391"/>
			<polygon style="opacity:0.1;" points="46.271,311.37 58.801,311.37 58.801,318.779 46.271,318.646 			"/>
			<polygon style="opacity:0.1;" points="243.56,310.071 243.56,318.402 265.142,317.304 265.142,310.415 			"/>
			<polygon style="opacity:0.1;" points="95.662,367.78 95.662,376.279 120.229,378.747 120.229,369.187 			"/>
		</g>
	</g>
</g>
<g id="Clouds">
	<g>
		<g>
			<path style="fill:none;stroke:#263238;stroke-linecap:round;stroke-linejoin:round;" d="M195.722,123.521
				c-6.181-3.357-9.06-0.565-11.32-3.357s6.225-10.19-10.755-17.544c0,0-1.086-15.85-24.334-16.414
				c-23.247-0.565-16.979,15.817-23.204,19.771c-6.225,3.954-7.919-2.26-14.122,1.705c-6.203,3.965-3.4,11.884-8.495,13.036
				c-5.095,1.151-11.884-5.095-18.109-1.086s-6.225,7.354-9.049,7.354c-2.824,0-8.495-2.26-11.885,0
				c-3.389,2.26-7.354,5.095-7.354,5.095h143.146C200.241,132.081,201.946,126.921,195.722,123.521z"/>
			<path style="fill:none;stroke:#263238;stroke-linecap:round;stroke-linejoin:round;" d="M111.02,121.25
				c-0.814,0.459-1.66,0.858-2.531,1.195"/>
			<path style="fill:none;stroke:#263238;stroke-linecap:round;stroke-linejoin:round;" d="M141.644,94.765
				c-2.853,1.281-4.91,3.863-5.519,6.931c-1.086,5.182-3.454,8.626-6.214,8.973c-2.759,0.348-13.155-0.706-14.85,3.085
				c-0.461,1.116-0.789,2.283-0.978,3.476"/>
		</g>
		<g>
			<path style="fill:none;stroke:#263238;stroke-linecap:round;stroke-linejoin:round;" d="M202.646,170.881
				c-2.433-1.325-3.542-0.217-4.421-1.325c-0.88-1.108,2.423-3.976-4.204-6.855c0,0-0.445-6.192-9.505-6.409
				s-6.637,6.192-9.071,7.735c-2.433,1.543-3.096-0.88-5.53,0.663c-2.433,1.543-1.325,4.649-3.313,5.095
				c-1.988,0.445-4.639-1.999-7.072-0.445c-2.433,1.553-2.433,2.868-3.541,2.868c-1.108,0-3.313-0.88-4.639,0
				c-1.325,0.88-2.879,1.999-2.879,1.999h55.935C204.406,174.205,205.068,172.206,202.646,170.881z"/>
			<path style="fill:none;stroke:#263238;stroke-linecap:round;stroke-linejoin:round;" d="M169.567,169.98
				c-0.316,0.177-0.642,0.333-0.978,0.467"/>
			<path style="fill:none;stroke:#263238;stroke-linecap:round;stroke-linejoin:round;" d="M181.517,159.648
				c-1.116,0.496-1.924,1.499-2.173,2.694c-0.402,2.031-1.347,3.378-2.423,3.509c-1.076,0.13-5.128-0.261-5.801,1.217
				c-0.182,0.436-0.309,0.891-0.38,1.358"/>
		</g>
	</g>
</g>
</svg>
